<svg width="40" height="40" viewBox="0 0 40 40" fill="none" xmlns="http://www.w3.org/2000/svg">
<path d="M13.7101 30.8331C13.7101 30.9863 13.5339 31.1089 13.3117 31.1089C13.0589 31.1319 12.8827 31.0093 12.8827 30.8331C12.8827 30.6798 13.0589 30.5573 13.281 30.5573C13.5109 30.5343 13.7101 30.6569 13.7101 30.8331ZM11.3274 30.4883C11.2738 30.6415 11.427 30.8177 11.6569 30.8637C11.856 30.9403 12.0859 30.8637 12.1319 30.7105C12.1778 30.5573 12.0323 30.381 11.8024 30.3121C11.6032 30.2585 11.381 30.3351 11.3274 30.4883ZM14.7137 30.3581C14.4915 30.4117 14.3383 30.5573 14.3613 30.7335C14.3843 30.8867 14.5835 30.9863 14.8133 30.9327C15.0355 30.879 15.1887 30.7335 15.1657 30.5802C15.1427 30.4347 14.9359 30.3351 14.7137 30.3581ZM19.7548 1C9.12863 1 1 9.06734 1 19.6935C1 28.1899 6.34758 35.4605 13.9859 38.0194C14.9665 38.1956 15.3113 37.5903 15.3113 37.0923C15.3113 36.6173 15.2883 33.9972 15.2883 32.3883C15.2883 32.3883 9.9254 33.5375 8.79919 30.1052C8.79919 30.1052 7.92581 27.8758 6.66935 27.3012C6.66935 27.3012 4.91492 26.0984 6.79194 26.1214C6.79194 26.1214 8.6996 26.2746 9.74919 28.098C11.427 31.0552 14.2387 30.2048 15.3343 29.6992C15.5105 28.4734 16.0085 27.623 16.5601 27.1173C12.2774 26.6423 7.95645 26.0218 7.95645 18.6516C7.95645 16.5448 8.53871 15.4875 9.76452 14.1391C9.56532 13.6411 8.91411 11.5879 9.96371 8.9371C11.5649 8.43911 15.25 11.0056 15.25 11.0056C16.7823 10.5766 18.4294 10.3544 20.0613 10.3544C21.6931 10.3544 23.3403 10.5766 24.8726 11.0056C24.8726 11.0056 28.5577 8.43145 30.1589 8.9371C31.2085 11.5956 30.5573 13.6411 30.3581 14.1391C31.5839 15.4952 32.3347 16.5524 32.3347 18.6516C32.3347 26.0448 27.8222 26.6347 23.5395 27.1173C24.2444 27.7226 24.8419 28.8718 24.8419 30.6722C24.8419 33.254 24.819 36.4488 24.819 37.077C24.819 37.575 25.1714 38.1802 26.1444 38.004C33.8056 35.4605 39 28.1899 39 19.6935C39 9.06734 30.381 1 19.7548 1V1ZM8.44677 27.4238C8.34718 27.5004 8.37016 27.6766 8.5004 27.8222C8.62298 27.9448 8.79919 27.9984 8.89879 27.8988C8.99839 27.8222 8.9754 27.646 8.84516 27.5004C8.72258 27.3778 8.54637 27.3242 8.44677 27.4238ZM7.61936 26.8032C7.56573 26.9028 7.64234 27.0254 7.79556 27.102C7.91815 27.1786 8.07137 27.1556 8.125 27.0484C8.17863 26.9488 8.10202 26.8262 7.94879 26.7496C7.79556 26.7036 7.67298 26.7266 7.61936 26.8032ZM10.1016 29.5306C9.97903 29.6302 10.025 29.8601 10.2012 30.0056C10.3774 30.1819 10.5996 30.2048 10.6992 30.0823C10.7988 29.9827 10.7528 29.7528 10.5996 29.6073C10.431 29.431 10.2012 29.4081 10.1016 29.5306ZM9.22823 28.4044C9.10565 28.481 9.10565 28.6802 9.22823 28.8565C9.35081 29.0327 9.55766 29.1093 9.65726 29.0327C9.77984 28.9331 9.77984 28.7339 9.65726 28.5577C9.55 28.3815 9.35081 28.3048 9.22823 28.4044Z" fill="white"/>
</svg>
