<svg width="40" height="40" viewBox="0 0 40 40" fill="none" xmlns="http://www.w3.org/2000/svg">
<path d="M20.0042 10.2552C14.6126 10.2552 10.2637 14.6041 10.2637 19.9958C10.2637 25.3874 14.6126 29.7363 20.0042 29.7363C25.3959 29.7363 29.7448 25.3874 29.7448 19.9958C29.7448 14.6041 25.3959 10.2552 20.0042 10.2552ZM20.0042 26.3284C16.52 26.3284 13.6716 23.4885 13.6716 19.9958C13.6716 16.5031 16.5115 13.6631 20.0042 13.6631C23.4969 13.6631 26.3369 16.5031 26.3369 19.9958C26.3369 23.4885 23.4885 26.3284 20.0042 26.3284V26.3284ZM32.4152 9.85678C32.4152 11.1199 31.3979 12.1287 30.1432 12.1287C28.8801 12.1287 27.8713 11.1114 27.8713 9.85678C27.8713 8.60212 28.8886 7.58483 30.1432 7.58483C31.3979 7.58483 32.4152 8.60212 32.4152 9.85678ZM38.8665 12.1626C38.7224 9.11924 38.0272 6.42342 35.7977 4.20234C33.5766 1.98126 30.8808 1.28611 27.8374 1.13352C24.7007 0.955494 15.2993 0.955494 12.1626 1.13352C9.12772 1.27764 6.4319 1.97278 4.20234 4.19386C1.97278 6.41495 1.28611 9.11076 1.13352 12.1542C0.955494 15.2908 0.955494 24.6922 1.13352 27.8289C1.27764 30.8723 1.97278 33.5681 4.20234 35.7892C6.4319 38.0103 9.11924 38.7054 12.1626 38.858C15.2993 39.036 24.7007 39.036 27.8374 38.858C30.8808 38.7139 33.5766 38.0187 35.7977 35.7892C38.0187 33.5681 38.7139 30.8723 38.8665 27.8289C39.0445 24.6922 39.0445 15.2993 38.8665 12.1626V12.1626ZM34.8143 31.1944C34.153 32.856 32.873 34.1361 31.2029 34.8058C28.7021 35.7977 22.7679 35.5688 20.0042 35.5688C17.2406 35.5688 11.2979 35.7892 8.80558 34.8058C7.144 34.1446 5.86392 32.8645 5.1942 31.1944C4.20234 28.6936 4.43123 22.7594 4.43123 19.9958C4.43123 17.2321 4.21082 11.2895 5.1942 8.7971C5.85544 7.13553 7.13553 5.85544 8.80558 5.18572C11.3064 4.19386 17.2406 4.42275 20.0042 4.42275C22.7679 4.42275 28.7105 4.20234 31.2029 5.18572C32.8645 5.84696 34.1446 7.12705 34.8143 8.7971C35.8061 11.2979 35.5772 17.2321 35.5772 19.9958C35.5772 22.7594 35.8061 28.7021 34.8143 31.1944Z" fill="white"/>
</svg>
