<svg width="40" height="40" viewBox="0 0 40 40" fill="none" xmlns="http://www.w3.org/2000/svg">
<path d="M36.2857 1H3.7058C2.21295 1 1 2.22991 1 3.73973V36.2603C1 37.7701 2.21295 39 3.7058 39H36.2857C37.7786 39 39 37.7701 39 36.2603V3.73973C39 2.22991 37.7786 1 36.2857 1V1ZM12.4848 33.5714H6.85268V15.4366H12.4933V33.5714H12.4848ZM9.66875 12.9598C7.86205 12.9598 6.40312 11.4924 6.40312 9.6942C6.40312 7.89598 7.86205 6.42857 9.66875 6.42857C11.467 6.42857 12.9344 7.89598 12.9344 9.6942C12.9344 11.5009 11.4754 12.9598 9.66875 12.9598V12.9598ZM33.5969 33.5714H27.9647V24.75C27.9647 22.6464 27.9223 19.9406 25.0384 19.9406C22.1036 19.9406 21.654 22.2308 21.654 24.5973V33.5714H16.0219V15.4366H21.425V17.9134H21.5013C22.2562 16.4884 24.0969 14.9871 26.8366 14.9871C32.5366 14.9871 33.5969 18.7446 33.5969 23.6304V33.5714Z" fill="white"/>
</svg>
