<svg width="237" height="27" viewBox="0 0 237 27" fill="none" xmlns="http://www.w3.org/2000/svg">
<path d="M12.456 3.152V6.44H5.592V9.992H10.728V13.184H5.592V20H1.488V3.152H12.456ZM18.717 8.84C19.197 8.104 19.797 7.528 20.517 7.112C21.237 6.68 22.037 6.464 22.917 6.464V10.808H21.789C20.765 10.808 19.997 11.032 19.485 11.48C18.973 11.912 18.717 12.68 18.717 13.784V20H14.613V6.608H18.717V8.84ZM37.5026 13.088C37.5026 13.472 37.4786 13.872 37.4306 14.288H28.1426C28.2066 15.12 28.4706 15.76 28.9346 16.208C29.4146 16.64 29.9986 16.856 30.6866 16.856C31.7106 16.856 32.4226 16.424 32.8226 15.56H37.1906C36.9666 16.44 36.5586 17.232 35.9666 17.936C35.3906 18.64 34.6626 19.192 33.7826 19.592C32.9026 19.992 31.9186 20.192 30.8306 20.192C29.5186 20.192 28.3506 19.912 27.3266 19.352C26.3026 18.792 25.5026 17.992 24.9266 16.952C24.3506 15.912 24.0626 14.696 24.0626 13.304C24.0626 11.912 24.3426 10.696 24.9026 9.656C25.4786 8.616 26.2786 7.816 27.3026 7.256C28.3266 6.696 29.5026 6.416 30.8306 6.416C32.1266 6.416 33.2786 6.688 34.2866 7.232C35.2946 7.776 36.0786 8.552 36.6386 9.56C37.2146 10.568 37.5026 11.744 37.5026 13.088ZM33.3026 12.008C33.3026 11.304 33.0626 10.744 32.5826 10.328C32.1026 9.912 31.5026 9.704 30.7826 9.704C30.0946 9.704 29.5106 9.904 29.0306 10.304C28.5666 10.704 28.2786 11.272 28.1666 12.008H33.3026ZM52.2917 13.088C52.2917 13.472 52.2677 13.872 52.2197 14.288H42.9317C42.9957 15.12 43.2597 15.76 43.7237 16.208C44.2037 16.64 44.7877 16.856 45.4757 16.856C46.4997 16.856 47.2117 16.424 47.6117 15.56H51.9797C51.7557 16.44 51.3477 17.232 50.7557 17.936C50.1797 18.64 49.4517 19.192 48.5717 19.592C47.6917 19.992 46.7077 20.192 45.6197 20.192C44.3077 20.192 43.1397 19.912 42.1157 19.352C41.0917 18.792 40.2917 17.992 39.7157 16.952C39.1397 15.912 38.8517 14.696 38.8517 13.304C38.8517 11.912 39.1317 10.696 39.6917 9.656C40.2677 8.616 41.0677 7.816 42.0917 7.256C43.1157 6.696 44.2917 6.416 45.6197 6.416C46.9157 6.416 48.0677 6.688 49.0757 7.232C50.0837 7.776 50.8677 8.552 51.4277 9.56C52.0037 10.568 52.2917 11.744 52.2917 13.088ZM48.0917 12.008C48.0917 11.304 47.8517 10.744 47.3717 10.328C46.8917 9.912 46.2917 9.704 45.5717 9.704C44.8837 9.704 44.2997 9.904 43.8197 10.304C43.3557 10.704 43.0677 11.272 42.9557 12.008H48.0917ZM58.5608 2.24V20H54.4568V2.24H58.5608ZM60.7189 13.28C60.7189 11.904 60.9749 10.696 61.4869 9.656C62.0149 8.616 62.7269 7.816 63.6229 7.256C64.5189 6.696 65.5189 6.416 66.6229 6.416C67.5669 6.416 68.3909 6.608 69.0949 6.992C69.8149 7.376 70.3669 7.88 70.7509 8.504V6.608H74.8549V20H70.7509V18.104C70.3509 18.728 69.7909 19.232 69.0709 19.616C68.3669 20 67.5429 20.192 66.5989 20.192C65.5109 20.192 64.5189 19.912 63.6229 19.352C62.7269 18.776 62.0149 17.968 61.4869 16.928C60.9749 15.872 60.7189 14.656 60.7189 13.28ZM70.7509 13.304C70.7509 12.28 70.4629 11.472 69.8869 10.88C69.3269 10.288 68.6389 9.992 67.8229 9.992C67.0069 9.992 66.3109 10.288 65.7349 10.88C65.1749 11.456 64.8949 12.256 64.8949 13.28C64.8949 14.304 65.1749 15.12 65.7349 15.728C66.3109 16.32 67.0069 16.616 67.8229 16.616C68.6389 16.616 69.3269 16.32 69.8869 15.728C70.4629 15.136 70.7509 14.328 70.7509 13.304ZM85.9839 6.464C87.5519 6.464 88.7999 6.976 89.7279 8C90.6719 9.008 91.1439 10.4 91.1439 12.176V20H87.0639V12.728C87.0639 11.832 86.8319 11.136 86.3679 10.64C85.9039 10.144 85.2799 9.896 84.4959 9.896C83.7119 9.896 83.0879 10.144 82.6239 10.64C82.1599 11.136 81.9279 11.832 81.9279 12.728V20H77.8239V6.608H81.9279V8.384C82.3439 7.792 82.9039 7.328 83.6079 6.992C84.3119 6.64 85.1039 6.464 85.9839 6.464ZM93.1798 13.304C93.1798 11.912 93.4598 10.696 94.0198 9.656C94.5958 8.616 95.3878 7.816 96.3958 7.256C97.4198 6.696 98.5878 6.416 99.8998 6.416C101.58 6.416 102.98 6.856 104.1 7.736C105.236 8.616 105.98 9.856 106.332 11.456H101.964C101.596 10.432 100.884 9.92 99.8278 9.92C99.0758 9.92 98.4758 10.216 98.0278 10.808C97.5798 11.384 97.3558 12.216 97.3558 13.304C97.3558 14.392 97.5798 15.232 98.0278 15.824C98.4758 16.4 99.0758 16.688 99.8278 16.688C100.884 16.688 101.596 16.176 101.964 15.152H106.332C105.98 16.72 105.236 17.952 104.1 18.848C102.964 19.744 101.564 20.192 99.8998 20.192C98.5878 20.192 97.4198 19.912 96.3958 19.352C95.3878 18.792 94.5958 17.992 94.0198 16.952C93.4598 15.912 93.1798 14.696 93.1798 13.304ZM121.151 13.088C121.151 13.472 121.127 13.872 121.079 14.288H111.791C111.855 15.12 112.119 15.76 112.583 16.208C113.063 16.64 113.647 16.856 114.335 16.856C115.359 16.856 116.071 16.424 116.471 15.56H120.839C120.615 16.44 120.207 17.232 119.615 17.936C119.039 18.64 118.311 19.192 117.431 19.592C116.551 19.992 115.567 20.192 114.479 20.192C113.167 20.192 111.999 19.912 110.975 19.352C109.951 18.792 109.151 17.992 108.575 16.952C107.999 15.912 107.711 14.696 107.711 13.304C107.711 11.912 107.991 10.696 108.551 9.656C109.127 8.616 109.927 7.816 110.951 7.256C111.975 6.696 113.151 6.416 114.479 6.416C115.775 6.416 116.927 6.688 117.935 7.232C118.943 7.776 119.727 8.552 120.287 9.56C120.863 10.568 121.151 11.744 121.151 13.088ZM116.951 12.008C116.951 11.304 116.711 10.744 116.231 10.328C115.751 9.912 115.151 9.704 114.431 9.704C113.743 9.704 113.159 9.904 112.679 10.304C112.215 10.704 111.927 11.272 111.815 12.008H116.951ZM127.42 8.84C127.9 8.104 128.5 7.528 129.22 7.112C129.94 6.68 130.74 6.464 131.62 6.464V10.808H130.492C129.468 10.808 128.7 11.032 128.188 11.48C127.676 11.912 127.42 12.68 127.42 13.784V20H123.316V6.608H127.42V8.84ZM141.212 9.272C141.644 8.52 142.284 7.896 143.132 7.4C143.996 6.888 144.996 6.632 146.132 6.632C147.3 6.632 148.356 6.912 149.3 7.472C150.26 8.032 151.012 8.824 151.556 9.848C152.1 10.856 152.372 12.032 152.372 13.376C152.372 14.704 152.1 15.888 151.556 16.928C151.012 17.968 150.26 18.776 149.3 19.352C148.356 19.928 147.3 20.216 146.132 20.216C145.012 20.216 144.02 19.968 143.156 19.472C142.308 18.96 141.66 18.328 141.212 17.576V26.24H139.028V6.848H141.212V9.272ZM150.14 13.376C150.14 12.384 149.94 11.52 149.54 10.784C149.14 10.048 148.596 9.488 147.908 9.104C147.236 8.72 146.492 8.528 145.676 8.528C144.876 8.528 144.132 8.728 143.444 9.128C142.772 9.512 142.228 10.08 141.812 10.832C141.412 11.568 141.212 12.424 141.212 13.4C141.212 14.392 141.412 15.264 141.812 16.016C142.228 16.752 142.772 17.32 143.444 17.72C144.132 18.104 144.876 18.296 145.676 18.296C146.492 18.296 147.236 18.104 147.908 17.72C148.596 17.32 149.14 16.752 149.54 16.016C149.94 15.264 150.14 14.384 150.14 13.376ZM160.982 20.216C159.75 20.216 158.63 19.936 157.622 19.376C156.63 18.816 155.846 18.024 155.27 17C154.71 15.96 154.43 14.76 154.43 13.4C154.43 12.056 154.718 10.872 155.294 9.848C155.886 8.808 156.686 8.016 157.694 7.472C158.702 6.912 159.83 6.632 161.078 6.632C162.326 6.632 163.454 6.912 164.462 7.472C165.47 8.016 166.262 8.8 166.838 9.824C167.43 10.848 167.726 12.04 167.726 13.4C167.726 14.76 167.422 15.96 166.814 17C166.222 18.024 165.414 18.816 164.39 19.376C163.366 19.936 162.23 20.216 160.982 20.216ZM160.982 18.296C161.766 18.296 162.502 18.112 163.19 17.744C163.878 17.376 164.43 16.824 164.846 16.088C165.278 15.352 165.494 14.456 165.494 13.4C165.494 12.344 165.286 11.448 164.87 10.712C164.454 9.976 163.91 9.432 163.238 9.08C162.566 8.712 161.838 8.528 161.054 8.528C160.254 8.528 159.518 8.712 158.846 9.08C158.19 9.432 157.662 9.976 157.262 10.712C156.862 11.448 156.662 12.344 156.662 13.4C156.662 14.472 156.854 15.376 157.238 16.112C157.638 16.848 158.166 17.4 158.822 17.768C159.478 18.12 160.198 18.296 160.982 18.296ZM172.782 8.984C173.166 8.232 173.71 7.648 174.414 7.232C175.134 6.816 176.006 6.608 177.03 6.608V8.864H176.454C174.006 8.864 172.782 10.192 172.782 12.848V20H170.598V6.848H172.782V8.984ZM182.215 8.648V16.4C182.215 17.04 182.351 17.496 182.623 17.768C182.895 18.024 183.367 18.152 184.039 18.152H185.647V20H183.679C182.463 20 181.551 19.72 180.943 19.16C180.335 18.6 180.031 17.68 180.031 16.4V8.648H178.327V6.848H180.031V3.536H182.215V6.848H185.647V8.648H182.215ZM193.645 8.648H190.885V20H188.701V8.648H186.997V6.848H188.701V5.912C188.701 4.44 189.077 3.368 189.829 2.696C190.597 2.008 191.821 1.664 193.501 1.664V3.488C192.541 3.488 191.861 3.68 191.461 4.064C191.077 4.432 190.885 5.048 190.885 5.912V6.848H193.645V8.648ZM201.928 20.216C200.696 20.216 199.576 19.936 198.568 19.376C197.576 18.816 196.792 18.024 196.216 17C195.656 15.96 195.376 14.76 195.376 13.4C195.376 12.056 195.664 10.872 196.24 9.848C196.832 8.808 197.632 8.016 198.64 7.472C199.648 6.912 200.776 6.632 202.024 6.632C203.272 6.632 204.4 6.912 205.408 7.472C206.416 8.016 207.208 8.8 207.784 9.824C208.376 10.848 208.672 12.04 208.672 13.4C208.672 14.76 208.368 15.96 207.76 17C207.168 18.024 206.36 18.816 205.336 19.376C204.312 19.936 203.176 20.216 201.928 20.216ZM201.928 18.296C202.712 18.296 203.448 18.112 204.136 17.744C204.824 17.376 205.376 16.824 205.792 16.088C206.224 15.352 206.44 14.456 206.44 13.4C206.44 12.344 206.232 11.448 205.816 10.712C205.4 9.976 204.856 9.432 204.184 9.08C203.512 8.712 202.784 8.528 202 8.528C201.2 8.528 200.464 8.712 199.792 9.08C199.136 9.432 198.608 9.976 198.208 10.712C197.808 11.448 197.608 12.344 197.608 13.4C197.608 14.472 197.8 15.376 198.184 16.112C198.584 16.848 199.112 17.4 199.768 17.768C200.424 18.12 201.144 18.296 201.928 18.296ZM213.727 2.24V20H211.543V2.24H213.727ZM218.578 4.712C218.162 4.712 217.81 4.568 217.522 4.28C217.234 3.992 217.09 3.64 217.09 3.224C217.09 2.808 217.234 2.456 217.522 2.168C217.81 1.88 218.162 1.736 218.578 1.736C218.978 1.736 219.314 1.88 219.586 2.168C219.874 2.456 220.018 2.808 220.018 3.224C220.018 3.64 219.874 3.992 219.586 4.28C219.314 4.568 218.978 4.712 218.578 4.712ZM219.634 6.848V20H217.45V6.848H219.634ZM229.092 20.216C227.86 20.216 226.74 19.936 225.732 19.376C224.74 18.816 223.956 18.024 223.38 17C222.82 15.96 222.54 14.76 222.54 13.4C222.54 12.056 222.828 10.872 223.404 9.848C223.996 8.808 224.796 8.016 225.804 7.472C226.812 6.912 227.94 6.632 229.188 6.632C230.436 6.632 231.564 6.912 232.572 7.472C233.58 8.016 234.372 8.8 234.948 9.824C235.54 10.848 235.836 12.04 235.836 13.4C235.836 14.76 235.532 15.96 234.924 17C234.332 18.024 233.524 18.816 232.5 19.376C231.476 19.936 230.34 20.216 229.092 20.216ZM229.092 18.296C229.876 18.296 230.612 18.112 231.3 17.744C231.988 17.376 232.54 16.824 232.956 16.088C233.388 15.352 233.604 14.456 233.604 13.4C233.604 12.344 233.396 11.448 232.98 10.712C232.564 9.976 232.02 9.432 231.348 9.08C230.676 8.712 229.948 8.528 229.164 8.528C228.364 8.528 227.628 8.712 226.956 9.08C226.3 9.432 225.772 9.976 225.372 10.712C224.972 11.448 224.772 12.344 224.772 13.4C224.772 14.472 224.964 15.376 225.348 16.112C225.748 16.848 226.276 17.4 226.932 17.768C227.588 18.12 228.308 18.296 229.092 18.296Z" fill="white"/>
</svg>
