<svg width="40" height="40" viewBox="0 0 40 40" fill="none" xmlns="http://www.w3.org/2000/svg">
<path d="M35.094 12.6916C35.1181 13.0292 35.1181 13.3668 35.1181 13.7043C35.1181 24 27.2819 35.863 12.9594 35.863C8.54696 35.863 4.44799 34.585 1 32.3669C1.62693 32.4392 2.22966 32.4633 2.88071 32.4633C6.52153 32.4633 9.87311 31.2336 12.5495 29.1359C9.12565 29.0635 6.25634 26.8211 5.26774 23.7348C5.75002 23.8071 6.23222 23.8553 6.73862 23.8553C7.43783 23.8553 8.13713 23.7589 8.7881 23.5902C5.21957 22.8668 2.54309 19.7323 2.54309 15.9467V15.8503C3.57985 16.429 4.78554 16.7907 6.06337 16.8388C3.96564 15.4403 2.59133 13.0533 2.59133 10.3528C2.59133 8.90607 2.97705 7.57993 3.65222 6.42256C7.486 11.1485 13.2487 14.2347 19.7106 14.5723C19.5901 13.9936 19.5177 13.3909 19.5177 12.7881C19.5177 8.49616 22.9898 5 27.3058 5C29.5482 5 31.5736 5.94036 32.9962 7.4594C34.7563 7.12185 36.4441 6.4708 37.9391 5.57869C37.3604 7.38711 36.1307 8.90615 34.5152 9.87055C36.0825 9.70185 37.6016 9.26774 39 8.66501C37.9393 10.2081 36.613 11.5824 35.094 12.6916V12.6916Z" fill="white"/>
</svg>
