<svg width="40" height="40" viewBox="0 0 40 40" fill="none" xmlns="http://www.w3.org/2000/svg">
<path d="M38.134 10.5308C38.395 9.649 38.134 9 36.8783 9H32.7233C31.6651 9 31.1784 9.55729 30.9174 10.1781C30.9174 10.1781 28.8011 15.3348 25.8101 18.6785C24.8436 19.645 24.3992 19.9554 23.8701 19.9554C23.6091 19.9554 23.207 19.645 23.207 18.7632V10.5308C23.207 9.47264 22.9107 9 22.036 9H15.5037C14.8406 9 14.4455 9.4938 14.4455 9.95233C14.4455 10.954 15.9411 11.1868 16.0963 14.0086V20.1317C16.0963 21.472 15.8564 21.7189 15.3273 21.7189C13.9165 21.7189 10.4881 16.5411 8.45642 10.6154C8.04727 9.46559 7.64517 9 6.57997 9H2.42497C1.23985 9 1 9.55729 1 10.1781C1 11.2785 2.41086 16.7456 7.56757 23.9693C11.003 28.9002 15.8423 31.5738 20.2442 31.5738C22.8896 31.5738 23.2141 30.9813 23.2141 29.9584C23.2141 25.2461 22.9742 24.8017 24.3004 24.8017C24.9142 24.8017 25.9723 25.1121 28.4413 27.4894C31.263 30.3111 31.7286 31.5738 33.3088 31.5738H37.4638C38.6489 31.5738 39.2485 30.9813 38.9029 29.8103C38.1128 27.3483 32.7727 22.2833 32.5328 21.9447C31.9191 21.1546 32.0955 20.8019 32.5328 20.0965C32.5399 20.0894 37.6119 12.9504 38.134 10.5308V10.5308Z" fill="white"/>
</svg>
